<svg width="116" height="40" viewBox="0 0 116 40" fill="none" xmlns="http://www.w3.org/2000/svg">
<g clip-path="url(#clip0_2026_6050)">
<path d="M107.734 0.904785C108.064 0.904808 108.394 0.932482 108.719 0.971191L109.679 1.104L109.703 1.10791C110.038 1.16373 110.354 1.24934 110.649 1.34229L111.469 1.61865L111.537 1.64111L111.6 1.67334C112.743 2.2434 113.756 3.25216 114.328 4.39307H114.327C114.597 4.86812 114.732 5.39215 114.816 5.79346L114.889 6.16064L114.892 6.17627L114.895 6.19287C114.991 6.76466 115.098 7.49924 115.098 8.15771V31.7476C115.098 32.4062 114.988 33.066 114.899 33.6899L114.897 33.7007L114.895 33.7124C114.783 34.3825 114.55 34.973 114.382 35.4751L114.347 35.5796L114.291 35.6743C114.018 36.1273 113.672 36.7119 113.19 37.1929C112.788 37.5933 112.231 38.0546 111.607 38.3237C111.046 38.648 110.364 38.8798 109.644 38.9009C109.093 38.9924 108.466 39.0952 107.734 39.0952H8.26709C7.6076 39.0952 6.87169 38.9874 6.29834 38.8921C5.62711 38.7805 5.03572 38.5489 4.53174 38.3813L4.42725 38.3462L4.3335 38.2905C3.87933 38.0188 3.29334 37.6738 2.81104 37.1929C2.40644 36.7894 1.93965 36.2273 1.67041 35.5981C1.30442 34.9501 1.19099 34.2212 1.10596 33.7124C1.01182 33.1491 0.901855 32.5043 0.901855 31.7476V8.15771C0.901855 7.49921 1.01039 6.76469 1.10596 6.19287L1.10791 6.17627L1.11182 6.16064C1.22376 5.60265 1.44781 4.91966 1.80518 4.32568C2.0777 3.87273 2.42347 3.28809 2.90576 2.80713C3.38808 2.32616 3.97402 1.98124 4.42822 1.70947C5.0948 1.31063 5.86331 1.19596 6.39307 1.10791C6.95792 1.01403 7.60376 0.904798 8.36182 0.904785H107.734Z" fill="white" stroke="#C4C4C4" stroke-width="2"/>
<path d="M24.7217 20.3813C24.7217 18.7623 25.5774 17.2384 27.0037 16.3813C26.1479 15.1432 24.7217 14.3813 23.2004 14.2861C21.584 14.0956 20.0627 15.2384 19.2069 15.2384C18.3512 15.2384 17.1151 14.2861 15.784 14.2861C13.9774 14.3813 12.361 15.3337 11.5053 16.8575C9.69873 20.0003 11.0299 24.7623 12.8364 27.3337C13.6922 28.5718 14.7381 30.0004 16.0692 30.0004C17.4004 29.9051 17.8758 29.1432 19.4922 29.1432C21.1086 29.1432 21.4889 30.0004 22.9151 30.0004C24.3414 30.0004 25.1971 28.7623 26.0528 27.4289C26.7184 26.5718 27.1938 25.5242 27.4791 24.4765C25.7676 23.9051 24.7217 22.1908 24.7217 20.3813Z" fill="#25292A"/>
<path d="M22.0594 12.6668C22.8201 11.7144 23.2004 10.5716 23.1053 9.3335C21.9643 9.42873 20.8234 10.0002 20.0627 10.9525C19.302 11.8097 18.9217 12.9525 19.0168 14.1906C20.2529 14.1906 21.2988 13.6192 22.0594 12.6668Z" fill="#25292A"/>
<path d="M41.3612 26.8571H36.8924L35.8465 30.0952H33.9448L38.2235 18.2856H40.1252L44.4038 30.0952H42.5022L41.3612 26.8571ZM37.3678 25.4285H40.9809L39.1743 20.1904H39.0793L37.3678 25.4285Z" fill="#25292A"/>
<path d="M53.6269 25.8093C53.6269 28.476 52.2007 30.1903 50.0138 30.1903C48.8728 30.2855 47.8269 29.6189 47.3515 28.6665V32.9522H45.5449V21.5236H47.2564V22.9522C47.8269 21.9998 48.8728 21.4284 50.0138 21.4284C52.1056 21.3332 53.6269 23.1427 53.6269 25.8093ZM51.7252 25.8093C51.7252 24.0951 50.8695 22.9522 49.4433 22.9522C48.1121 22.9522 47.1613 24.0951 47.1613 25.8093C47.1613 27.5236 48.1121 28.6665 49.4433 28.6665C50.8695 28.6665 51.7252 27.5236 51.7252 25.8093Z" fill="#25292A"/>
<path d="M63.04 25.8093C63.04 28.476 61.6138 30.1903 59.4269 30.1903C58.2859 30.2855 57.24 29.6189 56.7646 28.6665V32.9522H54.958V21.5236H56.6695V22.9522C57.24 21.9998 58.2859 21.4284 59.4269 21.4284C61.6138 21.3332 63.04 23.1427 63.04 25.8093ZM61.2334 25.8093C61.2334 24.0951 60.3777 22.9522 58.9515 22.9522C57.6203 22.9522 56.6695 24.0951 56.6695 25.8093C56.6695 27.5236 57.6203 28.6665 58.9515 28.6665C60.3777 28.6665 61.2334 27.5236 61.2334 25.8093Z" fill="#25292A"/>
<path d="M69.3151 26.7619C69.4102 27.9047 70.5512 28.6666 72.1676 28.6666C73.6889 28.6666 74.7348 27.9047 74.7348 26.8571C74.7348 25.9047 74.0692 25.4286 72.5479 25.0476L71.0266 24.6666C68.8397 24.0952 67.8889 23.1428 67.8889 21.5238C67.8889 19.5238 69.6954 18.0952 72.1676 18.0952C74.6397 18.0952 76.3512 19.5238 76.4463 21.5238H74.6397C74.5446 20.3809 73.5938 19.619 72.1676 19.619C70.7413 19.619 69.7905 20.3809 69.7905 21.4285C69.7905 22.2857 70.4561 22.7619 71.9774 23.1428L73.3086 23.4285C75.6856 24 76.7315 24.9524 76.7315 26.6666C76.7315 28.8571 74.925 30.2857 72.1676 30.2857C69.5053 30.2857 67.7938 28.9524 67.6987 26.7619H69.3151Z" fill="#25292A"/>
<path d="M80.345 19.4287V21.4287H81.9614V22.8573H80.345V27.6192C80.345 28.3811 80.6302 28.6668 81.3909 28.6668C81.5811 28.6668 81.7712 28.6668 81.9614 28.6668V30.0954C81.6761 30.1906 81.2958 30.1906 81.0106 30.1906C79.2991 30.1906 78.6335 29.5239 78.6335 27.9049V22.9525H77.3975V21.5239H78.6335V19.5239H80.345V19.4287Z" fill="#25292A"/>
<path d="M83.0073 25.8097C83.0073 23.143 84.6237 21.4287 87.0959 21.4287C89.568 21.4287 91.1844 23.143 91.1844 25.8097C91.1844 28.5716 89.568 30.1906 87.0959 30.1906C84.5286 30.1906 83.0073 28.4763 83.0073 25.8097ZM89.3778 25.8097C89.3778 23.9049 88.5221 22.8573 87.0959 22.8573C85.6696 22.8573 84.8139 23.9049 84.8139 25.8097C84.8139 27.7144 85.6696 28.762 87.0959 28.762C88.5221 28.762 89.3778 27.6192 89.3778 25.8097Z" fill="#25292A"/>
<path d="M92.6104 21.4285H94.3218V22.9523C94.512 21.9999 95.4628 21.3332 96.4136 21.4285C96.6038 21.4285 96.794 21.4285 96.9841 21.5237V23.1428C96.6989 23.0475 96.4136 23.0475 96.2235 23.0475C95.2727 23.0475 94.4169 23.8094 94.4169 24.7618C94.4169 24.8571 94.4169 24.9523 94.4169 25.0475V30.1904H92.6104V21.4285Z" fill="#25292A"/>
<path d="M105.161 27.524C104.971 29.0478 103.354 30.1906 101.453 30.1906C98.9807 30.1906 97.3643 28.4764 97.3643 25.8097C97.3643 23.143 98.8856 21.3335 101.358 21.3335C103.735 21.3335 105.256 22.9525 105.256 25.6192V26.1906H99.1708V26.2859C99.0757 27.524 99.9315 28.5716 101.168 28.7621C101.263 28.7621 101.358 28.7621 101.453 28.7621C102.309 28.8573 103.164 28.3811 103.45 27.524H105.161ZM99.1708 24.9525H103.45C103.545 23.8097 102.594 22.8573 101.453 22.7621C101.358 22.7621 101.358 22.7621 101.263 22.7621C100.122 22.7621 99.1708 23.7144 99.1708 24.9525Z" fill="#25292A"/>
<path d="M37.082 9.33352C38.5083 9.23828 39.6492 10.2859 39.7443 11.6192C39.7443 11.8097 39.7443 11.9049 39.7443 12.0954C39.7443 13.9049 38.7935 14.9526 37.082 14.9526H34.9902V9.23828H37.082V9.33352ZM35.9411 14.2859H36.987C37.9378 14.3811 38.7935 13.6192 38.8886 12.5716C38.8886 12.4764 38.8886 12.2859 38.8886 12.1907C38.9837 11.2383 38.3181 10.2859 37.3673 10.1907C37.2722 10.1907 37.1771 10.1907 36.987 10.1907H35.9411V14.2859Z" fill="#25292A"/>
<path d="M40.7902 12.8572C40.6952 11.7143 41.4558 10.7619 42.5968 10.6667C43.7378 10.5715 44.6886 11.3334 44.7837 12.4762C44.7837 12.5715 44.7837 12.7619 44.7837 12.8572C44.8788 14 44.1181 14.9524 42.9771 15.0477C41.8361 15.1429 40.8853 14.381 40.7902 13.2381C40.7902 13.1429 40.7902 13.0477 40.7902 12.8572ZM43.9279 12.8572C43.9279 11.9048 43.5476 11.4286 42.787 11.4286C42.0263 11.4286 41.646 12 41.646 12.8572C41.646 13.8096 42.0263 14.381 42.787 14.381C43.5476 14.381 43.9279 13.8096 43.9279 12.8572Z" fill="#25292A"/>
<path d="M50.2034 15.0479H49.3477L48.492 11.9051H48.3969L47.5412 15.0479H46.6854L45.5444 10.7622H46.4002L47.1608 14.0003H47.2559L48.1116 10.7622H48.9674L49.8231 14.0003H49.9182L50.6789 10.7622H51.5346L50.2034 15.0479Z" fill="#25292A"/>
<path d="M52.3901 10.7623H53.2459V11.429H53.341C53.5311 10.9528 54.1016 10.6671 54.577 10.6671C55.3377 10.5718 56.0032 11.1433 56.0983 12.0004C56.0983 12.0957 56.0983 12.1909 56.0983 12.2861V15.048H55.2426V12.4766C55.2426 11.8099 54.9574 11.429 54.2918 11.429C53.7213 11.429 53.2459 11.8099 53.2459 12.3814C53.2459 12.4766 53.2459 12.4766 53.2459 12.5718V15.048H52.3901V10.7623Z" fill="#25292A"/>
<path d="M57.3345 9.04785H58.1902V15.0479H57.3345V9.04785Z" fill="#25292A"/>
<path d="M59.3312 12.8572C59.2362 11.7143 59.9968 10.7619 61.1378 10.6667C62.2788 10.5715 63.2296 11.3334 63.3247 12.4762C63.3247 12.5715 63.3247 12.7619 63.3247 12.8572C63.4198 14 62.6591 14.9524 61.5181 15.0477C60.3771 15.1429 59.4263 14.381 59.3312 13.2381C59.3312 13.1429 59.3312 13.0477 59.3312 12.8572ZM62.564 12.8572C62.564 11.9048 62.1837 11.4286 61.4231 11.4286C60.6624 11.4286 60.2821 12 60.2821 12.8572C60.2821 13.8096 60.6624 14.381 61.4231 14.381C62.0886 14.381 62.564 13.8096 62.564 12.8572Z" fill="#25292A"/>
<path d="M64.2753 13.8098C64.2753 13.0479 64.8457 12.5718 65.8916 12.5718L67.0326 12.4765V12.0956C67.0326 11.6194 66.7474 11.4289 66.1769 11.4289C65.7015 11.4289 65.4162 11.6194 65.3212 11.9051H64.4654C64.5605 11.1432 65.2261 10.667 66.1769 10.667C67.2228 10.667 67.8884 11.2384 67.8884 12.0956V15.0479H67.0326V14.4765H66.9375C66.6523 14.9527 66.1769 15.1432 65.6064 15.1432C64.9408 15.2384 64.2753 14.667 64.1802 14.0003C64.2753 13.9051 64.2753 13.9051 64.2753 13.8098ZM67.0326 13.4289V13.0479L65.9867 13.1432C65.4162 13.1432 65.131 13.4289 65.131 13.7146C65.131 14.0956 65.5113 14.286 65.8916 14.286C66.4621 14.4765 66.9376 14.0956 67.0326 13.4289C67.0326 13.5241 67.0326 13.5241 67.0326 13.4289Z" fill="#25292A"/>
<path d="M68.9346 12.8574C68.9346 11.524 69.6001 10.6669 70.7411 10.6669C71.3116 10.6669 71.787 10.9526 72.0723 11.4288H72.1673V9.04785H73.0231V15.0479H72.1673V14.3812H72.0723C71.787 14.8574 71.3116 15.1431 70.7411 15.1431C69.6952 15.1431 68.9346 14.2859 68.9346 12.8574ZM69.8854 12.8574C69.8854 13.8098 70.3608 14.2859 71.0264 14.2859C71.6919 14.2859 72.1673 13.7145 72.1673 12.8574C72.1673 12.0002 71.6919 11.4288 71.0264 11.4288C70.2657 11.4288 69.8854 12.0002 69.8854 12.8574Z" fill="#25292A"/>
<path d="M76.446 12.8572C76.3509 11.7143 77.1116 10.7619 78.2526 10.6667C79.3935 10.5715 80.3444 11.3334 80.4394 12.4762C80.4394 12.5715 80.4394 12.7619 80.4394 12.8572C80.5345 14 79.7739 14.9524 78.6329 15.0477C77.4919 15.1429 76.5411 14.381 76.446 13.2381C76.446 13.1429 76.446 13.0477 76.446 12.8572ZM79.6788 12.8572C79.6788 11.9048 79.2985 11.4286 78.5378 11.4286C77.7771 11.4286 77.3968 12 77.3968 12.8572C77.3968 13.8096 77.7771 14.381 78.5378 14.381C79.2034 14.381 79.6788 13.8096 79.6788 12.8572Z" fill="#25292A"/>
<path d="M81.6753 10.7623H82.531V11.429H82.6261C82.8163 10.9528 83.3868 10.6671 83.8622 10.6671C84.6228 10.5718 85.2884 11.1433 85.3835 12.0004C85.3835 12.0957 85.3835 12.1909 85.3835 12.2861V15.048H84.5277V12.4766C84.5277 11.8099 84.2425 11.429 83.5769 11.429C83.0064 11.429 82.531 11.8099 82.531 12.3814C82.531 12.4766 82.531 12.4766 82.531 12.5718V15.048H81.6753V10.7623Z" fill="#25292A"/>
<path d="M90.0427 9.71436V10.762H90.9935V11.5239H90.0427V13.7144C90.0427 14.1905 90.2328 14.381 90.6131 14.381C90.7082 14.381 90.8033 14.381 90.8984 14.381V15.0477C90.7082 15.0477 90.6132 15.0477 90.423 15.0477C89.4722 15.0477 89.0918 14.762 89.0918 13.9048V11.5239H88.4263V10.8572H89.0918V9.71436H90.0427Z" fill="#25292A"/>
<path d="M92.1343 9.04785H92.99V11.4288H93.0851C93.2753 10.9526 93.8458 10.5717 94.4162 10.6669C95.1769 10.6669 95.8425 11.2383 95.9376 12.0002C95.9376 12.0955 95.9376 12.1907 95.9376 12.2859V15.0479H95.0818V12.4764C95.0818 11.8098 94.7966 11.4288 94.131 11.4288C93.5605 11.4288 93.0851 11.8098 93.0851 12.3812C93.0851 12.4764 93.0851 12.4764 93.0851 12.5717V15.0479H92.2294L92.1343 9.04785Z" fill="#25292A"/>
<path d="M100.787 13.9051C100.597 14.667 99.741 15.2384 98.8852 15.1432C97.8393 15.1432 96.8885 14.286 96.8885 13.2384C96.8885 13.1432 96.8885 13.0479 96.8885 12.9527C96.6983 11.9051 97.459 10.8574 98.6 10.7622C98.6951 10.7622 98.7901 10.7622 98.8852 10.7622C100.121 10.7622 100.787 11.6194 100.787 12.9527V13.2384H97.7442C97.6492 13.9051 98.1246 14.3813 98.7901 14.4765H98.8852C99.2655 14.5717 99.741 14.286 99.9311 14.0003L100.787 13.9051ZM97.7442 12.4765H99.9311C99.9311 11.9051 99.5508 11.4289 98.9803 11.3336H98.8852C98.3147 11.4289 97.7442 11.9051 97.7442 12.4765Z" fill="#25292A"/>
</g>
<defs>
<clipPath id="clip0_2026_6050">
<rect width="116" height="40" fill="white"/>
</clipPath>
</defs>
</svg>
