<svg width="32" height="32" viewBox="0 0 32 32" fill="none" xmlns="http://www.w3.org/2000/svg">
<circle cx="16" cy="16" r="16" fill="black"/>
<path d="M22.2897 19.6367C21.8072 19.249 21.293 18.901 20.7867 18.545C19.7781 17.837 18.8526 17.7816 18.0971 18.9207C17.6739 19.5615 17.0806 19.5892 16.4635 19.3084C14.7549 18.5331 13.4377 17.3426 12.6625 15.6062C12.3223 14.8389 12.3263 14.1506 13.1253 13.6048C13.5485 13.3161 13.9757 12.9759 13.9401 12.351C13.8966 11.5322 11.907 8.79911 11.1239 8.51037C10.7995 8.39171 10.4752 8.39962 10.1469 8.51037C8.3077 9.1274 7.54432 10.6423 8.27605 12.434C10.4554 17.7816 14.2842 21.5036 19.5606 23.7739C19.8612 23.9044 20.1974 23.9559 20.3635 23.9994C21.5659 24.0112 22.97 22.8523 23.3774 21.7053C23.769 20.6018 22.9423 20.1627 22.2897 19.6367Z" fill="white"/>
<path d="M16.3724 8.84646C20.2288 9.43976 22.0087 11.275 22.4991 15.1591C22.5427 15.5191 22.4121 16.057 22.9224 16.0689C23.4563 16.0807 23.3298 15.5468 23.3337 15.1868C23.3772 11.5282 20.1892 8.13847 16.4831 8.0119C16.2023 8.05145 15.6248 7.81809 15.5892 8.44698C15.5655 8.86624 16.052 8.79504 16.3724 8.84646Z" fill="white"/>
<path d="M17.1278 9.91049C16.756 9.86698 16.2655 9.68899 16.1785 10.2071C16.0876 10.749 16.6334 10.6936 16.9854 10.7727C19.3665 11.3067 20.1971 12.1729 20.5887 14.5342C20.6441 14.8784 20.5333 15.4163 21.1187 15.3253C21.5538 15.2581 21.3956 14.7993 21.4312 14.5303C21.451 12.2599 19.5089 10.1953 17.1278 9.91049Z" fill="white"/>
<path d="M17.3457 11.7656C17.0965 11.7735 16.8552 11.7972 16.7642 12.0622C16.6258 12.4578 16.9145 12.5527 17.2072 12.6002C18.1842 12.7584 18.6984 13.3319 18.7973 14.3088C18.8249 14.5739 18.9911 14.7874 19.2482 14.7558C19.6002 14.7123 19.6358 14.3998 19.6239 14.0992C19.6397 13.0036 18.4017 11.7379 17.3457 11.7656Z" fill="white"/>
</svg>
