<svg width="109" height="30" viewBox="0 0 109 30" fill="none" xmlns="http://www.w3.org/2000/svg">
<g clip-path="url(#clip0_45_315)">
<path d="M55.1755 8.84839C55.1755 6.9078 54.0604 5.60643 52.3999 5.60643C50.7136 5.60643 49.623 6.90901 49.623 8.84839C49.623 10.789 50.7124 12.0903 52.3999 12.0903C54.0591 12.0903 55.1755 10.7878 55.1755 8.84839ZM56.0316 8.84839C56.0316 11.172 54.5787 12.8057 52.476 12.8057C51.2822 12.8057 50.323 12.2692 49.7004 11.4016V15.2308H48.8701V5.01918H49.5702L49.6746 6.39789C50.2973 5.45297 51.2835 4.8923 52.4773 4.8923C54.5787 4.8911 56.0316 6.52476 56.0316 8.84839Z" fill="black"/>
<path d="M61.9678 4.91651V5.70797C61.7344 5.6826 61.4225 5.6826 61.2665 5.6826C59.7092 5.6826 58.6198 6.72901 58.6198 8.26118V12.6776H57.7896V5.01922H58.4896L58.594 6.37256C59.1393 5.45422 60.2029 4.89235 61.4741 4.89235C61.6313 4.89114 61.786 4.89114 61.9678 4.91651Z" fill="black"/>
<path d="M68.9939 8.84841C68.9939 6.88245 67.8517 5.60645 66.0881 5.60645C64.349 5.60645 63.1822 6.90782 63.1822 8.84841C63.1822 10.8144 64.3502 12.0904 66.0881 12.0904C67.8271 12.0904 68.9939 10.7878 68.9939 8.84841ZM62.3262 8.84841C62.3262 6.52478 63.8565 4.89111 66.0893 4.89111C68.3467 4.89111 69.8512 6.47403 69.8512 8.84841C69.8512 11.172 68.3196 12.8057 66.0893 12.8057C63.8307 12.8045 62.3262 11.2228 62.3262 8.84841Z" fill="black"/>
<path d="M76.9222 11.937V12.6777H70.4351V11.8862L75.7801 5.75879H70.6684V5.01929H76.7405V5.81075L71.3955 11.937H76.9222Z" fill="black"/>
<path d="M84.1157 8.84841C84.1157 6.88245 82.9735 5.60645 81.2099 5.60645C79.4708 5.60645 78.304 6.90782 78.304 8.84841C78.304 10.8144 79.472 12.0904 81.2099 12.0904C82.9477 12.0904 84.1157 10.7878 84.1157 8.84841ZM77.4468 8.84841C77.4468 6.52478 78.9771 4.89111 81.2087 4.89111C83.466 4.89111 84.9705 6.47403 84.9705 8.84841C84.9705 11.172 83.439 12.8057 81.2087 12.8057C78.9513 12.8045 77.4468 11.2228 77.4468 8.84841Z" fill="black"/>
<path d="M90.9063 4.91651V5.70797C90.6729 5.6826 90.361 5.6826 90.205 5.6826C88.6477 5.6826 87.5583 6.72901 87.5583 8.26118V12.6776H86.728V5.01922H87.4281L87.5325 6.37256C88.0778 5.45301 89.1414 4.89235 90.4125 4.89235C90.5685 4.89114 90.7245 4.89114 90.9063 4.91651Z" fill="black"/>
<path d="M96.3611 4.9165V5.70796C96.1277 5.68258 95.8158 5.68258 95.661 5.68258C94.1037 5.68258 93.0143 6.729 93.0143 8.26117V12.6776H92.1841V5.01921H92.8854L92.9898 6.37254C93.5338 5.453 94.5987 4.89233 95.8698 4.89233C96.0233 4.89112 96.1793 4.89112 96.3611 4.9165Z" fill="black"/>
<path d="M103.386 8.84841C103.386 6.88245 102.244 5.60645 100.48 5.60645C98.7408 5.60645 97.5741 6.90782 97.5741 8.84841C97.5741 10.8144 98.742 12.0904 100.48 12.0904C102.218 12.0904 103.386 10.7878 103.386 8.84841ZM96.7168 8.84841C96.7168 6.52478 98.2471 4.89111 100.48 4.89111C102.737 4.89111 104.242 6.47403 104.242 8.84841C104.242 11.172 102.71 12.8057 100.48 12.8057C98.2225 12.8057 96.7168 11.2228 96.7168 8.84841Z" fill="black"/>
<path d="M56.0844 24.9809H54.0076V19.1603H50.9457V24.9809H48.8701V17.3224H56.0844V24.9809Z" fill="black"/>
<path d="M63.5713 21.1517C63.5713 19.7476 62.87 18.88 61.7033 18.88C60.5353 18.88 59.861 19.7476 59.861 21.1517C59.861 22.5557 60.5353 23.4233 61.7033 23.4233C62.87 23.4245 63.5713 22.5557 63.5713 21.1517ZM65.6727 21.1517C65.6727 23.526 64.323 25.109 62.3517 25.109C61.3397 25.109 60.5353 24.7259 59.9384 24.0879V27.5341H57.8628V17.3224H59.7308L59.834 18.3942C60.4309 17.6282 61.2869 17.1944 62.3505 17.1944C64.3758 17.1956 65.6727 18.7519 65.6727 21.1517Z" fill="black"/>
<path d="M72.5136 21.1517C72.5136 19.7222 71.7608 18.88 70.5682 18.88C69.3744 18.88 68.6216 19.7222 68.6216 21.1517C68.6216 22.5811 69.3744 23.4233 70.5682 23.4233C71.7608 23.4245 72.5136 22.5823 72.5136 21.1517ZM66.4932 21.1517C66.4932 18.7773 68.1279 17.1944 70.567 17.1944C73.0319 17.1944 74.6408 18.7519 74.6408 21.1517C74.6408 23.526 73.0061 25.109 70.567 25.109C68.1021 25.109 66.4932 23.5514 66.4932 21.1517Z" fill="black"/>
<path d="M81.0877 23.1949V19.1108H78.3636V20.591C78.3636 21.5867 78.312 22.4796 78.2076 23.1949H81.0877ZM84.1753 23.143V26.768H82.177V24.9809H77.2214V26.768H75.2231V23.143H76.1836C76.2867 22.5557 76.3396 21.7135 76.3396 20.5137V17.3224H83.1375V23.143H84.1753Z" fill="black"/>
<path d="M89.8309 21.9951V21.3317C89.5202 21.5106 89.0781 21.5867 88.5082 21.6894C87.7037 21.8175 86.9509 21.9444 86.9509 22.6851C86.9509 23.1962 87.3144 23.5019 87.9629 23.5019C89.0007 23.5007 89.8309 22.8373 89.8309 21.9951ZM92.582 23.2204V24.9821C92.426 25.0075 92.2185 25.0329 91.8292 25.0329C90.8687 25.0329 90.3504 24.6752 90.1945 23.8837C89.6492 24.6498 88.6371 25.109 87.4962 25.109C85.9646 25.109 84.9526 24.2148 84.9526 22.8881C84.9526 20.8967 86.8465 20.5391 88.3006 20.3602C89.1825 20.2575 89.8837 20.1307 89.8837 19.6715C89.8837 19.187 89.3642 18.8547 88.4824 18.8547C87.6779 18.8547 86.9521 19.1604 86.3552 19.7476L85.1098 18.497C86.0445 17.6294 87.2112 17.1944 88.6126 17.1944C90.6366 17.1944 91.8304 18.1647 91.8304 19.773V22.7854C91.8304 23.0657 91.9864 23.2192 92.2713 23.2192H92.582V23.2204Z" fill="black"/>
<path d="M101.625 21.7135L100.69 22.6838V24.9809H98.6143V22.6838L97.6551 21.7135L95.6569 24.9809H93.2178L96.1494 20.3602L93.2694 17.3224H95.8645L98.6143 20.4629V17.3224H100.69V20.4375L103.441 17.3224H106.01L103.13 20.3348L106.088 24.9809H103.649L101.625 21.7135Z" fill="black"/>
<path d="M107.051 24.9809H109.126V17.3224H107.051V24.9809ZM106.972 16.3534H109.204V14.617H106.972V16.3534Z" fill="black"/>
<path d="M18.5881 19.3765L14.8704 23.0342C14.1556 23.7374 14.1556 24.889 14.8704 25.5934L18.5881 29.251C18.9431 29.6002 19.411 29.7767 19.8789 29.7791H19.8973C20.3653 29.7767 20.8332 29.6002 21.1881 29.251L24.9058 25.5934C25.6206 24.8902 25.6206 23.7386 24.9058 23.0342L21.1881 19.3765C20.8307 19.0249 20.3591 18.8485 19.8875 18.8485C19.4159 18.8485 18.9455 19.0249 18.5881 19.3765ZM34.4929 18.4159L32.9958 19.8889C32.7071 20.1728 32.7071 20.6356 32.9958 20.9196L34.4929 22.3925C34.7815 22.6765 35.2519 22.6765 35.5405 22.3925L37.0377 20.9196C37.3263 20.6356 37.3263 20.1728 37.0377 19.8889L35.5405 18.4159C35.3968 18.2745 35.2065 18.2032 35.0173 18.2032C34.8282 18.2032 34.6378 18.2745 34.4929 18.4159ZM39.0052 13.7469L38.0177 14.7184C37.8274 14.9057 37.8274 15.2114 38.0177 15.3987L39.0052 16.3702C39.1956 16.5575 39.5063 16.5575 39.6954 16.3702L40.6829 15.3987C40.8732 15.2114 40.8732 14.9057 40.6829 14.7196L39.6954 13.7481C39.6009 13.6551 39.4756 13.608 39.3503 13.608C39.225 13.6067 39.0998 13.6539 39.0052 13.7469ZM26.7247 11.4825L24.0326 14.1312C23.5143 14.6411 23.5143 15.4748 24.0326 15.9847L26.7247 18.6334C27.243 19.1433 28.0905 19.1433 28.6087 18.6334L31.3009 15.9847C31.8192 15.4748 31.8192 14.6411 31.3009 14.1312L28.6087 11.4825C28.3496 11.2275 28.0082 11.1007 27.6667 11.1007C27.3253 11.1007 26.9839 11.2275 26.7247 11.4825ZM34.2202 7.65933L32.5892 9.26399C32.2761 9.57212 32.2761 10.0772 32.5892 10.3865L34.2202 11.9912C34.5334 12.2993 35.0468 12.2993 35.3612 11.9912L36.9922 10.3865C37.3054 10.0784 37.3054 9.57333 36.9922 9.26399L35.3612 7.65933C35.204 7.50466 34.9977 7.42732 34.7913 7.42732C34.5838 7.42732 34.3775 7.50466 34.2202 7.65933ZM5.87656 8.00008L0.562276 13.2285C0.0538146 13.7288 -0.202873 14.3885 -0.204102 15.0483V15.0664C-0.201645 15.7262 0.0538146 16.3859 0.562276 16.8862L5.87656 22.1146C6.8984 23.1212 8.57239 23.1212 9.59423 22.1146L14.9085 16.8862C15.9316 15.8796 15.9316 14.2339 14.9085 13.2273L9.59423 7.99887C9.08331 7.4962 8.40905 7.24487 7.73478 7.24487C7.06052 7.24487 6.38748 7.49741 5.87656 8.00008ZM18.3904 0.762158L14.5769 4.51403C13.8437 5.23541 13.8437 6.41716 14.5769 7.13853L18.3904 10.8904C19.1248 11.6118 20.3247 11.6118 21.0592 10.8904L24.8727 7.13853C25.6059 6.41716 25.6059 5.23541 24.8727 4.51403L21.0592 0.762158C20.692 0.400866 20.2093 0.220825 19.7254 0.220825C19.2415 0.220825 18.7576 0.402075 18.3904 0.762158Z" fill="url(#paint0_linear_45_315)"/>
</g>
<defs>
<linearGradient id="paint0_linear_45_315" x1="1.96594" y1="21.3869" x2="38.2351" y2="7.96934" gradientUnits="userSpaceOnUse">
<stop offset="0.1" stop-color="#5C2D91"/>
<stop offset="0.5" stop-color="#E2195B"/>
<stop offset="0.9" stop-color="#F68B1F"/>
</linearGradient>
<clipPath id="clip0_45_315">
<rect width="109" height="30" fill="white"/>
</clipPath>
</defs>
</svg>
