<svg viewBox="0 0 24 24" xmlns="http://www.w3.org/2000/svg"><path fill-rule="evenodd" clip-rule="evenodd" d="M4 12c0-1.219.74-2.444 2.19-3.41C7.635 7.626 9.686 7 12 7s4.366.627 5.81 1.59C19.26 9.555 20 10.78 20 12s-.74 2.444-2.19 3.41C16.365 16.373 14.314 17 12 17s-4.366-.628-5.81-1.59C4.74 14.445 4 13.22 4 12m8-7c-2.655 0-5.104.716-6.919 1.925C3.274 8.13 2 9.905 2 12s1.274 3.87 3.081 5.075C6.896 18.285 9.345 19 12 19s5.104-.716 6.919-1.925C20.726 15.87 22 14.095 22 12s-1.274-3.87-3.081-5.075C17.104 5.715 14.655 5 12 5M9.768 8.684a4 4 0 1 1 4.444 6.652 4 4 0 0 1-4.444-6.652"/></svg>