<svg viewBox="0 0 24 24" xmlns="http://www.w3.org/2000/svg"><path fill-rule="evenodd" clip-rule="evenodd" d="M13.637 4.139a.5.5 0 0 0-.35-.146h-.485v1.893a5.63 5.63 0 0 1-1.654 3.986l-2.307 2.322v5.192a1.56 1.56 0 0 0 .453 1.1 1.54 1.54 0 0 0 1.092.455h7.693l1.89-7.345a.5.5 0 0 0-.088-.438.5.5 0 0 0-.396-.19h-5.703V4.492a.5.5 0 0 0-.145-.352M10.822 2h2.465a2.46 2.46 0 0 1 1.756.726 2.5 2.5 0 0 1 .729 1.765v4.485h3.722a2.46 2.46 0 0 1 1.98.955 2.5 2.5 0 0 1 .446 2.164l-1.98 7.563a1.7 1.7 0 0 1-1.812 1.276h-7.742a3.5 3.5 0 0 1-1.833-.522 2 2 0 0 1-.54 1.004 1.97 1.97 0 0 1-1.4.584H3.98c-.525 0-1.029-.21-1.4-.584A2 2 0 0 1 2 20.007v-9.178a2 2 0 0 1 .58-1.41 1.97 1.97 0 0 1 1.4-.583h2.634a1.97 1.97 0 0 1 1.739 1.04l1.4-1.409a3.68 3.68 0 0 0 1.069-2.6zM6.614 20.007v-9.178H3.98v9.178z"/></svg>