<svg viewBox="0 0 24 24" xmlns="http://www.w3.org/2000/svg"><path d="M18.29 15.637c-.483-.388-.997-.736-1.503-1.092-1.009-.708-1.934-.763-2.69.376-.423.64-1.016.668-1.633.388-1.71-.776-3.026-1.966-3.802-3.703-.34-.767-.336-1.455.463-2 .423-.29.85-.63.815-1.255-.043-.819-2.033-3.552-2.816-3.84a1.43 1.43 0 0 0-.977 0c-1.84.617-2.603 2.132-1.871 3.923 2.18 5.348 6.008 9.07 11.285 11.34.3.13.636.182.802.226 1.203.012 2.607-1.147 3.014-2.294.392-1.104-.435-1.543-1.087-2.07"/><path d="M12.372 4.847c3.857.593 5.637 2.428 6.127 6.312.044.36-.087.898.423.91.534.012.408-.522.412-.882.043-3.659-3.145-7.048-6.85-7.175-.282.04-.86-.194-.895.435-.024.42.463.348.783.4"/><path d="M13.128 5.91c-.372-.043-.863-.22-.95.297-.09.542.455.487.807.566 2.382.534 3.212 1.4 3.604 3.762.055.344-.056.881.53.79.435-.067.277-.525.312-.794.02-2.27-1.922-4.335-4.303-4.62"/><path d="M13.346 7.766c-.25.008-.49.031-.582.296-.138.396.15.49.443.538.977.159 1.491.732 1.59 1.71.028.264.194.478.451.446.352-.043.388-.356.376-.656.016-1.096-1.222-2.362-2.278-2.334"/></svg>