<svg width="32" height="32" viewBox="0 0 32 32" fill="none" xmlns="http://www.w3.org/2000/svg">
<g clip-path="url(#clip0_2034_5216)">
<path d="M16 32C24.8366 32 32 24.8366 32 16C32 7.16344 24.8366 0 16 0C7.16344 0 0 7.16344 0 16C0 24.8366 7.16344 32 16 32Z" fill="black"/>
<path d="M19.1465 16.0049H16.9041V24H13.5813V16.0049H12V13.1804H13.5813V11.3525C13.5813 10.0475 14.2004 8 16.9337 8L19.3956 8.00987V10.7505H17.6096C17.3161 10.7505 16.9041 10.8961 16.9041 11.5202V13.1829H19.4351L19.1465 16.0049Z" fill="white"/>
</g>
<defs>
<clipPath id="clip0_2034_5216">
<rect width="32" height="32" fill="white"/>
</clipPath>
</defs>
</svg>
