<svg width="41" height="39" viewBox="0 0 41 39" fill="none" xmlns="http://www.w3.org/2000/svg">
<path d="M34.4492 11.3271H28.4755V27.6823H11.6465V39.0001H34.4468C35.1919 39.0004 35.9299 38.858 36.6184 38.581C37.3069 38.3041 37.9325 37.898 38.4594 37.386C38.9863 36.874 39.4042 36.2661 39.6892 35.5971C39.9742 34.928 40.1208 34.211 40.1204 33.4869V16.8426C40.1211 16.1185 39.9749 15.4014 39.6901 14.7323C39.4054 14.0631 38.9878 13.4551 38.4611 12.9429C37.9344 12.4307 37.309 12.0243 36.6206 11.7471C35.9322 11.4698 35.1943 11.3271 34.4492 11.3271Z" fill="#46D75A"/>
<path d="M5.67366 27.6822H11.6473V11.3271H28.4763V0H5.67606C4.17067 0 2.72694 0.581091 1.66247 1.61544C0.598002 2.64979 0 4.05267 0 5.51546V22.1691C0.00127111 23.6309 0.599431 25.0325 1.66318 26.0661C2.72692 27.0998 4.1693 27.681 5.67366 27.6822Z" fill="#46D75A"/>
</svg>
