<svg width="86" height="86" viewBox="0 0 86 86" fill="none" xmlns="http://www.w3.org/2000/svg">
<g clip-path="url(#clip0_2055_4933)">
<path d="M43 85.5664C66.5088 85.5664 85.5664 66.5088 85.5664 43C85.5664 19.4912 66.5088 0.433594 43 0.433594C19.4912 0.433594 0.433594 19.4912 0.433594 43C0.433594 66.5088 19.4912 85.5664 43 85.5664Z" fill="white"/>
<path d="M34.9961 60.1891C34.026 60.8072 33.0441 60.8433 32.0507 60.2975C31.0572 59.7516 30.5595 58.9072 30.5576 57.7642V28.2373C30.5576 27.0962 31.0553 26.2517 32.0507 25.704C33.0461 25.1562 34.0279 25.1924 34.9961 25.8124L58.7169 40.5758C59.59 41.1464 60.0266 41.9547 60.0266 43.0007C60.0266 44.0468 59.59 44.8551 58.7169 45.4256L34.9961 60.1891Z" fill="black"/>
</g>
<defs>
<clipPath id="clip0_2055_4933">
<rect width="86" height="86" fill="white"/>
</clipPath>
</defs>
</svg>
