<svg width="132" height="40" viewBox="0 0 132 40" fill="none" xmlns="http://www.w3.org/2000/svg">
<g clip-path="url(#clip0_2029_259)">
<path d="M125.353 0.904785C128.518 0.904785 131.1 3.29772 131.101 6.42822V33.5718C131.1 36.7023 128.518 39.0952 125.353 39.0952H6.64746C3.48254 39.0951 0.899593 36.7023 0.899414 33.5718V6.42822C0.899619 3.29777 3.48255 0.904863 6.64746 0.904785H125.353Z" fill="white" stroke="#C4C4C4" stroke-width="2"/>
<path d="M46.9122 10.6668C46.9122 11.4287 46.7223 12.0954 46.2474 12.5715C45.6777 13.143 45.0129 13.4287 44.1582 13.4287C43.3036 13.4287 42.6388 13.143 42.069 12.5715C41.4992 12.0001 41.2144 11.3334 41.2144 10.4763C41.2144 9.61916 41.4992 8.9525 42.069 8.38107C42.6388 7.80964 43.3036 7.52393 44.1582 7.52393C44.5381 7.52393 44.918 7.61916 45.2978 7.80964C45.6777 8.00012 45.9626 8.19059 46.1525 8.47631L45.6777 8.9525C45.2978 8.47631 44.823 8.28583 44.1582 8.28583C43.5885 8.28583 43.0187 8.47631 42.6388 8.9525C42.164 9.33345 41.9741 9.90488 41.9741 10.5715C41.9741 11.2382 42.164 11.8096 42.6388 12.1906C43.1136 12.5715 43.5885 12.8573 44.1582 12.8573C44.823 12.8573 45.2978 12.6668 45.7726 12.1906C46.0575 11.9049 46.2474 11.5239 46.2474 11.0477H44.1582V10.2858H46.9122C46.9122 10.3811 46.9122 10.5715 46.9122 10.6668Z" fill="#25292A" stroke="#25292A" stroke-width="0.2" stroke-miterlimit="10"/>
<path d="M51.2808 8.28581H48.7167V10.0953H51.0908V10.762H48.7167V12.5715H51.2808V13.3334H47.957V7.61914H51.2808V8.28581Z" fill="#25292A" stroke="#25292A" stroke-width="0.2" stroke-miterlimit="10"/>
<path d="M54.4141 13.3334H53.6544V8.28581H52.04V7.61914H56.0285V8.28581H54.4141V13.3334Z" fill="#25292A" stroke="#25292A" stroke-width="0.2" stroke-miterlimit="10"/>
<path d="M58.7827 13.3334V7.61914H59.5424V13.3334H58.7827Z" fill="#25292A" stroke="#25292A" stroke-width="0.2" stroke-miterlimit="10"/>
<path d="M62.7711 13.3334H62.0114V8.28581H60.397V7.61914H64.2905V8.28581H62.6761V13.3334H62.7711Z" fill="#25292A" stroke="#25292A" stroke-width="0.2" stroke-miterlimit="10"/>
<path d="M71.7929 12.5715C71.2231 13.143 70.5583 13.4287 69.7037 13.4287C68.849 13.4287 68.1842 13.143 67.6144 12.5715C67.0447 12.0001 66.7598 11.3334 66.7598 10.4763C66.7598 9.61916 67.0447 8.9525 67.6144 8.38107C68.1842 7.80964 68.849 7.52393 69.7037 7.52393C70.5583 7.52393 71.2231 7.80964 71.7929 8.38107C72.3626 8.9525 72.6475 9.61916 72.6475 10.4763C72.6475 11.3334 72.3626 12.0001 71.7929 12.5715ZM68.1842 12.0954C68.5641 12.4763 69.1339 12.762 69.7037 12.762C70.2734 12.762 70.8432 12.5715 71.2231 12.0954C71.6029 11.7144 71.8878 11.143 71.8878 10.4763C71.8878 9.80964 71.6979 9.23821 71.2231 8.85726C70.8432 8.47631 70.2734 8.19059 69.7037 8.19059C69.1339 8.19059 68.5641 8.38107 68.1842 8.85726C67.8044 9.23821 67.5195 9.80964 67.5195 10.4763C67.5195 11.143 67.7094 11.7144 68.1842 12.0954Z" fill="#25292A" stroke="#25292A" stroke-width="0.2" stroke-miterlimit="10"/>
<path d="M73.6919 13.3334V7.61914H74.5466L77.3005 12.0953V10.9525V7.61914H78.0602V13.3334H77.3005L74.3566 8.66676V9.80962V13.3334H73.6919Z" fill="#25292A" stroke="#25292A" stroke-width="0.2" stroke-miterlimit="10"/>
<path d="M66.57 21.7145C64.2908 21.7145 62.4865 23.4288 62.4865 25.8097C62.4865 28.0954 64.2908 29.9049 66.57 29.9049C68.8491 29.9049 70.6534 28.1907 70.6534 25.8097C70.6534 23.3335 68.8491 21.7145 66.57 21.7145ZM66.57 28.1907C65.3354 28.1907 64.2908 27.143 64.2908 25.7145C64.2908 24.2859 65.3354 23.2383 66.57 23.2383C67.8045 23.2383 68.8491 24.1907 68.8491 25.7145C68.8491 27.143 67.8045 28.1907 66.57 28.1907ZM57.7383 21.7145C55.4592 21.7145 53.6549 23.4288 53.6549 25.8097C53.6549 28.0954 55.4592 29.9049 57.7383 29.9049C60.0175 29.9049 61.8218 28.1907 61.8218 25.8097C61.8218 23.3335 60.0175 21.7145 57.7383 21.7145ZM57.7383 28.1907C56.5038 28.1907 55.4592 27.143 55.4592 25.7145C55.4592 24.2859 56.5038 23.2383 57.7383 23.2383C58.9729 23.2383 60.0175 24.1907 60.0175 25.7145C60.0175 27.143 58.9729 28.1907 57.7383 28.1907ZM47.1973 22.9526V24.6669H51.2808C51.1858 25.6192 50.8059 26.3811 50.3311 26.8573C49.7613 27.4288 48.8117 28.0954 47.1973 28.0954C44.6333 28.0954 42.734 26.0954 42.734 23.524C42.734 20.9526 44.7283 18.9526 47.1973 18.9526C48.5268 18.9526 49.5714 19.524 50.3311 20.1907L51.5657 18.9526C50.5211 18.0002 49.1916 17.2383 47.2923 17.2383C43.8736 17.2383 40.9297 20.0954 40.9297 23.524C40.9297 26.9526 43.8736 29.8097 47.2923 29.8097C49.1916 29.8097 50.5211 29.2383 51.6606 28.0002C52.8002 26.8573 53.18 25.2383 53.18 24.0002C53.18 23.6192 53.1801 23.2383 53.0851 22.9526H47.1973ZM90.311 24.2859C89.9311 23.3335 88.9815 21.7145 86.8923 21.7145C84.8031 21.7145 83.0937 23.3335 83.0937 25.8097C83.0937 28.0954 84.8031 29.9049 87.0822 29.9049C88.8865 29.9049 90.0261 28.7621 90.4059 28.0954L89.0765 27.143C88.6016 27.8097 88.0318 28.2859 87.0822 28.2859C86.1326 28.2859 85.5628 27.9049 85.088 27.0478L90.5009 24.7621L90.311 24.2859ZM84.8031 25.6192C84.8031 24.0954 86.0376 23.2383 86.8923 23.2383C87.557 23.2383 88.2218 23.6192 88.4117 24.0954L84.8031 25.6192ZM80.3398 29.524H82.1441V17.6192H80.3398V29.524ZM77.4908 22.5716C77.016 22.0954 76.2563 21.6192 75.3067 21.6192C73.3124 21.6192 71.4131 23.4288 71.4131 25.7145C71.4131 28.0002 73.2175 29.7145 75.3067 29.7145C76.2563 29.7145 77.016 29.2383 77.3959 28.7621H77.4908V29.3335C77.4908 30.8573 76.6362 31.7145 75.3067 31.7145C74.2621 31.7145 73.5023 30.9526 73.3124 30.2859L71.793 30.9526C72.2678 32.0002 73.4074 33.3335 75.4016 33.3335C77.4908 33.3335 79.2002 32.0954 79.2002 29.143V21.9049H77.4908V22.5716ZM75.4016 28.1907C74.1671 28.1907 73.1225 27.143 73.1225 25.7145C73.1225 24.2859 74.1671 23.2383 75.4016 23.2383C76.6362 23.2383 77.5858 24.2859 77.5858 25.7145C77.5858 27.143 76.6362 28.1907 75.4016 28.1907ZM98.5729 17.6192H94.2995V29.524H96.1038V25.0478H98.5729C100.567 25.0478 102.466 23.6192 102.466 21.3335C102.466 19.0478 100.567 17.6192 98.5729 17.6192ZM98.6678 23.3335H96.1038V19.2383H98.6678C99.9973 19.2383 100.757 20.3811 100.757 21.2383C100.662 22.2859 99.9024 23.3335 98.6678 23.3335ZM109.589 21.6192C108.259 21.6192 106.93 22.1907 106.455 23.4288L108.069 24.0954C108.449 23.4288 109.019 23.2383 109.684 23.2383C110.633 23.2383 111.488 23.8097 111.583 24.7621V24.8573C111.298 24.6669 110.538 24.3811 109.779 24.3811C108.069 24.3811 106.36 25.3335 106.36 27.0478C106.36 28.6669 107.784 29.7145 109.304 29.7145C110.538 29.7145 111.108 29.143 111.583 28.5716H111.678V29.524H113.387V24.9526C113.197 22.8573 111.583 21.6192 109.589 21.6192ZM109.399 28.1907C108.829 28.1907 107.974 27.9049 107.974 27.143C107.974 26.1907 109.019 25.9049 109.874 25.9049C110.633 25.9049 111.013 26.0954 111.488 26.2859C111.298 27.4288 110.348 28.1907 109.399 28.1907ZM119.37 21.9049L117.376 27.0478H117.281L115.192 21.9049H113.292L116.426 29.143L114.622 33.143H116.426L121.269 21.9049H119.37ZM103.416 29.524H105.22V17.6192H103.416V29.524Z" fill="#25292A"/>
<path d="M11.7759 8.09521C11.491 8.38093 11.396 8.85712 11.396 9.42855V30.4762C11.396 31.0476 11.5859 31.5238 11.8708 31.8095L11.9658 31.9047L23.7413 20.0952V20V19.9047L11.7759 8.09521Z" fill="url(#paint0_linear_2029_259)"/>
<path d="M27.54 24.0952L23.6465 20.1905V20V19.9048L27.54 16L27.635 16.0952L32.2882 18.7619C33.6177 19.5238 33.6177 20.7619 32.2882 21.5238L27.54 24.0952Z" fill="url(#paint1_linear_2029_259)"/>
<path d="M27.6349 24L23.6464 20L11.7759 31.9048C12.2507 32.3809 12.9154 32.3809 13.7701 32L27.6349 24Z" fill="url(#paint2_linear_2029_259)"/>
<path d="M27.6349 16.0001L13.7701 8.0953C12.9154 7.61911 12.2507 7.71435 11.7759 8.19054L23.6464 20.0001L27.6349 16.0001Z" fill="url(#paint3_linear_2029_259)"/>
<path opacity="0.2" d="M27.5399 23.9048L13.7701 31.7143C13.0104 32.1905 12.3457 32.0953 11.8708 31.7143L11.7759 31.8095L11.8708 31.9048C12.3457 32.2857 13.0104 32.381 13.7701 31.9048L27.5399 23.9048Z" fill="#25292A"/>
<path opacity="0.12" d="M11.7759 31.7142C11.491 31.4285 11.396 30.9523 11.396 30.3809V30.4761C11.396 31.0475 11.5859 31.5237 11.8708 31.8094V31.7142H11.7759Z" fill="#25292A"/>
<path opacity="0.12" d="M32.2882 21.2381L27.54 23.9048L27.635 24L32.2882 21.3333C32.953 20.9524 33.2379 20.4762 33.2379 20C33.2379 20.4762 32.858 20.8571 32.2882 21.2381Z" fill="#25292A"/>
<path opacity="0.25" d="M13.7701 8.19052L32.2881 18.762C32.8579 19.1429 33.2377 19.5239 33.2377 20C33.2377 19.5239 32.9528 19.0477 32.2881 18.6667L13.7701 8.09529C12.4406 7.33338 11.396 7.90481 11.396 9.42862V9.52386C11.396 8.09529 12.4406 7.42862 13.7701 8.19052Z" fill="#25292A"/>
</g>
<defs>
<linearGradient id="paint0_linear_2029_259" x1="22.6014" y1="9.24741" x2="6.6182" y2="25.1846" gradientUnits="userSpaceOnUse">
<stop stop-color="#00A0FF"/>
<stop offset="0.00657445" stop-color="#00A1FF"/>
<stop offset="0.2601" stop-color="#00BEFF"/>
<stop offset="0.5122" stop-color="#00D2FF"/>
<stop offset="0.7604" stop-color="#00DFFF"/>
<stop offset="1" stop-color="#00E3FF"/>
</linearGradient>
<linearGradient id="paint1_linear_2029_259" x1="34.0301" y1="20.0014" x2="11.0518" y2="20.0014" gradientUnits="userSpaceOnUse">
<stop stop-color="#FFE000"/>
<stop offset="0.4087" stop-color="#FFBD00"/>
<stop offset="0.7754" stop-color="#FFA500"/>
<stop offset="1" stop-color="#FF9C00"/>
</linearGradient>
<linearGradient id="paint2_linear_2029_259" x1="25.4762" y1="22.1869" x2="3.80177" y2="43.799" gradientUnits="userSpaceOnUse">
<stop stop-color="#FF3A44"/>
<stop offset="1" stop-color="#C31162"/>
</linearGradient>
<linearGradient id="paint3_linear_2029_259" x1="8.82933" y1="1.12035" x2="18.508" y2="10.771" gradientUnits="userSpaceOnUse">
<stop stop-color="#32A071"/>
<stop offset="0.0685" stop-color="#2DA771"/>
<stop offset="0.4762" stop-color="#15CF74"/>
<stop offset="0.8009" stop-color="#06E775"/>
<stop offset="1" stop-color="#00F076"/>
</linearGradient>
<clipPath id="clip0_2029_259">
<rect width="132" height="40" fill="white"/>
</clipPath>
</defs>
</svg>
