<svg width="32" height="32" viewBox="0 0 32 32" fill="none" xmlns="http://www.w3.org/2000/svg">
<g clip-path="url(#clip0_2034_5210)">
<path d="M16 32C24.8366 32 32 24.8366 32 16C32 7.16344 24.8366 0 16 0C7.16344 0 0 7.16344 0 16C0 24.8366 7.16344 32 16 32Z" fill="black"/>
<path d="M24 22.992H20.689V17.798C20.689 16.56 20.666 14.965 18.966 14.965C17.24 14.965 16.976 16.315 16.976 17.709V23H13.663V12.313H16.843V13.773H16.888C17.2065 13.2288 17.6664 12.781 18.2189 12.4771C18.7714 12.1732 19.3958 12.0246 20.026 12.047C23.384 12.044 24 14.255 24 17.132V22.992ZM9.922 10.85C9.41238 10.8479 8.92429 10.6443 8.56421 10.2837C8.20414 9.92303 8.00132 9.43462 8 8.925C8.00288 8.41587 8.20621 7.92836 8.56594 7.56806C8.92568 7.20776 9.41287 7.00367 9.922 7C10.432 7.00158 10.9206 7.20494 11.2811 7.56563C11.6416 7.92632 11.8447 8.41504 11.846 8.925C11.8431 9.43404 11.6398 9.92144 11.28 10.2816C10.9202 10.6417 10.433 10.8456 9.924 10.849H9.922V10.85ZM11.583 22.993H8.261V12.313H11.583V22.993Z" fill="white"/>
</g>
<defs>
<clipPath id="clip0_2034_5210">
<rect width="32" height="32" fill="white"/>
</clipPath>
</defs>
</svg>
