<svg width="187" height="31" viewBox="0 0 187 31" fill="none" xmlns="http://www.w3.org/2000/svg">
<path d="M115.896 22.0038H120.626V9.00359H133.952V0H115.898C114.706 0 113.563 0.461893 112.72 1.28407C111.877 2.10624 111.403 3.22135 111.403 4.38408V17.6216C111.404 18.7835 111.878 19.8976 112.72 20.7192C113.563 21.5408 114.705 22.0028 115.896 22.0038Z" fill="#46D75A"/>
<path d="M138.683 9.0036H133.953V22.0038H120.626V31H138.681C139.271 31.0003 139.855 30.8871 140.4 30.6669C140.946 30.4468 141.441 30.124 141.858 29.717C142.275 29.3101 142.606 28.8269 142.832 28.2951C143.058 27.7633 143.174 27.1933 143.174 26.6178V13.3877C143.174 12.8121 143.058 12.2421 142.833 11.7102C142.607 11.1784 142.277 10.695 141.86 10.2879C141.443 9.88075 140.947 9.55776 140.402 9.33739C139.857 9.11703 139.273 9.0036 138.683 9.0036Z" fill="#46D75A"/>
<path d="M12.2656 21.9408H0V18.9433L7.48783 11.9937H0V8.99619H12.2656V11.9937L4.72265 18.9433H12.2656V21.9408Z" fill="black"/>
<path d="M20.51 8.64213C22.5372 8.64213 24.1621 9.10556 25.3847 10.0324C26.6073 10.9593 27.2174 12.2489 27.2149 13.9012V21.9408H23.6914V20.9583C22.7792 21.8481 21.345 22.293 19.3887 22.293C17.7505 22.293 16.4703 21.9118 15.5479 21.1493C14.6256 20.3868 14.1644 19.3054 14.1644 17.9052C14.1644 16.4222 14.7561 15.3644 15.9394 14.7316C17.1228 14.0989 18.6172 13.7856 20.4226 13.7918H23.6914C23.7093 13.4761 23.638 13.1616 23.4851 12.8828C23.3323 12.6039 23.1039 12.3714 22.8248 12.2106C22.247 11.8633 21.5021 11.6897 20.5898 11.6897C18.9706 11.6897 17.9368 12.2075 17.4883 13.2431H13.8584C14.2119 11.7379 15.0075 10.5947 16.2454 9.81369C17.5181 9.02299 19.0013 8.61551 20.51 8.64213ZM23.6914 16.8987V16.3555H20.4226C18.5956 16.3555 17.6828 16.882 17.684 17.9349C17.6823 18.1637 17.7388 18.3894 17.8486 18.5916C17.9584 18.7939 18.118 18.9663 18.3131 19.0935C18.7331 19.3938 19.3241 19.5421 20.0881 19.5421C20.9926 19.5697 21.8842 19.3279 22.6442 18.8488C22.9772 18.6403 23.2489 18.3508 23.4325 18.0089C23.6161 17.667 23.7053 17.2844 23.6914 16.8987Z" fill="black"/>
<path d="M29.8926 3.7186H33.4122V14.0105L38.8324 9.00545H43.7223L36.5689 15.4935L43.6957 21.9408H38.8324L33.4122 17.2268V21.9408H29.8926V3.7186Z" fill="black"/>
<path d="M50.315 22.2949C48.5843 22.2949 47.1831 21.8005 46.1112 20.8119C45.0394 19.8232 44.5034 18.4836 44.5034 16.793V9.00731H48.025V16.1646C48.025 17.1087 48.2784 17.8397 48.7852 18.3575C49.292 18.8754 50.0414 19.1343 51.0334 19.1343C51.4634 19.1398 51.8896 19.0552 52.2831 18.886C52.6766 18.7168 53.0281 18.467 53.314 18.1536C53.9373 17.4986 54.2496 16.6336 54.2509 15.5584V8.99619H57.7706V21.9408H54.2547V20.9583C53.3982 21.8494 52.085 22.2949 50.315 22.2949Z" fill="black"/>
<path d="M74.8992 15.4546C74.9335 17.2337 74.2685 18.9582 73.0406 20.2743C71.8015 21.6201 70.1582 22.2924 68.1108 22.2912C66.451 22.2912 65.1562 21.837 64.2262 20.9287V27.4965H60.7065V8.99618H64.2205V9.97866C65.1327 9.08887 66.4276 8.64336 68.105 8.64212C70.1537 8.64212 71.797 9.31441 73.0349 10.659C74.2616 11.9665 74.9287 13.6824 74.8992 15.4546ZM71.3776 15.4546C71.4029 14.4946 71.0421 13.5632 70.3723 12.8594C70.0515 12.5156 69.6584 12.2434 69.2199 12.0614C68.7814 11.8794 68.3078 11.7918 67.8314 11.8046C66.859 11.7848 65.915 12.1253 65.1897 12.7574C64.4536 13.3926 64.0862 14.2917 64.0875 15.4546C64.0887 16.6175 64.4612 17.5215 65.2049 18.1666C65.9232 18.802 66.8618 19.1479 67.8314 19.1343C68.3109 19.1453 68.7871 19.0534 69.2262 18.865C69.6653 18.6767 70.0566 18.3965 70.3723 18.0443C71.0347 17.3383 71.3945 16.4115 71.3776 15.4546Z" fill="black"/>
<path d="M76.9648 6.8996V3.16248H80.8209V6.8996H76.9648ZM77.1435 8.99618H80.6631V21.9408H77.1435V8.99618Z" fill="black"/>
<path d="M97.2201 8.99619L91.207 21.9408H87.8888L81.8833 8.99619H85.7659L89.6201 17.338L93.4761 8.99619H97.2201Z" fill="black"/>
<path d="M98.3926 3.7186H101.912V21.9408H98.3926V3.7186Z" fill="black"/>
<path d="M104.734 6.8996V3.16248H108.589V6.8996H104.734ZM104.902 8.99618H108.421V21.9408H104.902V8.99618Z" fill="black"/>
<path d="M161.384 15.4546C161.418 17.2337 160.753 18.9582 159.525 20.2743C158.288 21.6201 156.645 22.2924 154.595 22.2912C152.938 22.2912 151.644 21.837 150.712 20.9287V27.4965H147.191V8.99618H150.712V9.97866C151.625 9.08887 152.919 8.64336 154.595 8.64212C156.644 8.64212 158.287 9.31441 159.525 10.659C160.75 11.9673 161.415 13.6832 161.384 15.4546ZM157.864 15.4546C157.888 14.4948 157.528 13.5636 156.859 12.8594C156.538 12.514 156.145 12.2403 155.706 12.057C155.267 11.8736 154.793 11.785 154.316 11.7972C153.344 11.7779 152.401 12.1183 151.676 12.75C150.939 13.3852 150.571 14.2843 150.572 15.4472C150.573 16.6101 150.946 17.5141 151.689 18.1592C152.408 18.7944 153.346 19.1403 154.316 19.1268C154.796 19.138 155.272 19.0462 155.712 18.8579C156.151 18.6695 156.543 18.3892 156.859 18.0368C157.518 17.3323 157.878 16.4088 157.864 15.4546Z" fill="black"/>
<path d="M163.425 8.99619H166.946V10.3327C167.294 9.85503 167.78 9.48864 168.341 9.27981C169.003 9.01117 169.715 8.87682 170.432 8.88496H172.053V12.1587H170.403C169.305 12.1587 168.453 12.4763 167.847 13.1115C167.242 13.7467 166.939 14.5914 166.941 15.6455V21.9482H163.425V8.99619Z" fill="black"/>
<path d="M174.637 10.5904C176.006 9.29278 177.724 8.64336 179.792 8.64212C181.859 8.64089 183.577 9.29031 184.946 10.5904C186.316 11.8892 187.001 13.5199 187 15.4824C186.999 17.4449 186.315 19.0663 184.947 20.3466C183.579 21.6454 181.861 22.2949 179.793 22.2949C177.726 22.2949 176.007 21.6454 174.637 20.3466C173.269 19.049 172.585 17.4276 172.585 15.4824C172.585 13.5372 173.269 11.9065 174.637 10.5904ZM182.429 12.839C181.719 12.1753 180.773 11.8047 179.79 11.8047C178.806 11.8047 177.86 12.1753 177.15 12.839C176.801 13.1877 176.529 13.6017 176.349 14.0561C176.169 14.5104 176.085 14.9956 176.103 15.4824C176.103 16.5539 176.452 17.4307 177.15 18.1129C177.864 18.769 178.808 19.1344 179.79 19.1344C180.771 19.1344 181.715 18.769 182.429 18.1129C183.129 17.4307 183.478 16.5539 183.478 15.4824C183.496 14.9955 183.412 14.5102 183.231 14.0559C183.051 13.6016 182.778 13.1876 182.429 12.839Z" fill="black"/>
</svg>
