<svg width="32" height="32" viewBox="0 0 32 32" fill="none" xmlns="http://www.w3.org/2000/svg">
<g clip-path="url(#clip0_2034_5213)">
<path d="M16 32C24.8366 32 32 24.8366 32 16C32 7.16344 24.8366 0 16 0C7.16344 0 0 7.16344 0 16C0 24.8366 7.16344 32 16 32Z" fill="black"/>
<path d="M13.155 20L13 23L15 21.112L13.155 20ZM22.315 9.04203C19.56 10.145 10.682 13.822 7.31698 15.22C7.2198 15.26 7.13732 15.329 7.08077 15.4176C7.02422 15.5062 6.99636 15.61 7.00098 15.715C7.00588 15.8202 7.04349 15.9213 7.10856 16.0041C7.17363 16.0869 7.26292 16.1474 7.36398 16.177L11.232 17.373L19.874 12.165C19.8821 12.1586 19.8919 12.1547 19.9022 12.1539C19.9124 12.1531 19.9228 12.1553 19.9318 12.1603C19.9408 12.1654 19.9481 12.173 19.9527 12.1822C19.9574 12.1914 19.9592 12.2018 19.958 12.212C19.956 12.2256 19.9489 12.2378 19.938 12.246L13.329 18.492L19.319 22.845C19.4276 22.925 19.5548 22.9762 19.6885 22.9936C19.8223 23.011 19.9583 22.9942 20.0838 22.9448C20.2093 22.8953 20.3202 22.8148 20.4062 22.7108C20.4921 22.6068 20.5501 22.4826 20.575 22.35C21.129 19.42 22.517 12.097 22.99 9.58003C23.0081 9.49285 23.0016 9.40234 22.9712 9.31863C22.9409 9.23492 22.8878 9.16131 22.818 9.10603C22.7481 9.0502 22.6642 9.0147 22.5755 9.00341C22.4867 8.99212 22.3966 9.00548 22.315 9.04203Z" fill="white"/>
</g>
<defs>
<clipPath id="clip0_2034_5213">
<rect width="32" height="32" fill="white"/>
</clipPath>
</defs>
</svg>
